<svg width="76" height="84" fill="none" xmlns="http://www.w3.org/2000/svg"><g clip-path="url(#clip0)"><path d="M29.763 30.904v50.643H10.294V30.904c0-.688-.595-1.215-1.304-1.215H3.133l16.884-17.974L36.901 29.69h-5.857a1.224 1.224 0 00-1.28 1.215zm45.687 22.33L57.605 34.25a2.245 2.245 0 00-1.624-.688c-.618 0-1.212.252-1.647.688l-4.095 4.356v-15.52h5.513c.87 0 1.625-.46 1.99-1.216.367-.733.23-1.582-.342-2.2L39.555.687A2.336 2.336 0 0037.908 0c-.618 0-1.213.252-1.625.688l-4.095 4.356c-.48.504-.435 1.284.115 1.742.549.459 1.372.39 1.853-.115L37.93 2.66l16.86 17.974h-5.856c-.71 0-1.304.55-1.304 1.238v19.533L36.512 53.257c-.572.619-.71 1.467-.366 2.2.366.757 1.121 1.215 1.99 1.215h5.514V81.57H32.371V32.142h5.514c.87 0 1.624-.459 1.99-1.215.366-.757.229-1.582-.343-2.201l-13.04-13.87 3.66-3.897c.48-.505.435-1.284-.114-1.743a1.371 1.371 0 00-1.853.115l-3.432 3.668-3.089-3.256a2.245 2.245 0 00-1.624-.687c-.618 0-1.212.252-1.647.687L.548 28.726c-.572.619-.709 1.467-.343 2.2a2.206 2.206 0 001.99 1.216H7.71v50.62c0 .688.595 1.238 1.304 1.238h58.018c.732 0 1.304-.55 1.304-1.238V72.56c0-.688-.595-1.238-1.304-1.238-.732 0-1.304.55-1.304 1.238v8.964H46.281V55.412c0-.688-.595-1.238-1.304-1.238H39.12L56.004 36.2l16.884 17.974H67.03c-.732 0-1.304.55-1.304 1.238v11.485c0 .688.572 1.238 1.304 1.238.732 0 1.304-.55 1.304-1.238V56.65h5.514c.869 0 1.624-.459 1.99-1.215a1.98 1.98 0 00-.389-2.201z" fill="#9F83BB"/></g><defs><clipPath id="clip0"><path fill="#fff" d="M0 0h76v84H0z"/></clipPath></defs></svg>