<svg width="79" height="69" fill="none" xmlns="http://www.w3.org/2000/svg"><path d="M17.994 30.897c0 .126-.083.21-.207.21H12.01a.21.21 0 01-.207-.21v-6.054a.21.21 0 01.207-.209h5.777c.104 0 .207.105.207.21v6.053zm-.207-8.693H12.01c-1.392 0-2.514 1.173-2.514 2.64v6.053c0 1.446 1.122 2.64 2.514 2.64h5.777c1.392 0 2.514-1.173 2.514-2.64v-6.054c0-1.445-1.122-2.639-2.514-2.639zm12.446 8.693c0 .126-.083.21-.207.21h-5.777a.21.21 0 01-.207-.21v-6.054a.21.21 0 01.207-.209h5.777c.104 0 .207.105.207.21v6.053zm-.186-8.693H24.27c-1.392 0-2.514 1.173-2.514 2.64v6.053c0 1.446 1.122 2.64 2.514 2.64h5.777c1.392 0 2.514-1.173 2.514-2.64v-6.054c-.021-1.445-1.143-2.639-2.514-2.639zm12.528 8.798c0 .125-.083.21-.208.21h-5.776a.209.209 0 01-.208-.21v-6.054a.21.21 0 01.208-.21h5.776c.104 0 .208.105.208.21v6.054zm-.187-8.693h-5.776c-1.392 0-2.514 1.173-2.514 2.639v6.054c0 1.445 1.122 2.639 2.514 2.639h5.776c1.393 0 2.515-1.173 2.515-2.64v-6.053c0-1.445-1.143-2.64-2.515-2.64zm12.446 8.693c0 .125-.083.21-.207.21H48.85a.209.209 0 01-.208-.21v-6.054a.21.21 0 01.208-.21h5.777c.103 0 .207.105.207.21v6.054zm-.207-8.693H48.85c-1.392 0-2.514 1.173-2.514 2.639v6.054c0 1.445 1.122 2.639 2.514 2.639h5.777c1.392 0 2.514-1.173 2.514-2.64v-6.053c0-1.445-1.122-2.64-2.514-2.64zm12.446 8.693c0 .125-.083.21-.187.21H61.11a.209.209 0 01-.208-.21v-6.054a.21.21 0 01.208-.21h5.776c.104 0 .187.105.187.21v6.054zm-.187-8.693H61.11c-1.392 0-2.514 1.173-2.514 2.639v6.054c0 1.445 1.122 2.639 2.514 2.639h5.776c1.392 0 2.514-1.173 2.514-2.64v-6.053c0-1.445-1.142-2.64-2.514-2.64zM18.077 44.157c0 .125-.083.209-.208.209h-5.755a.209.209 0 01-.208-.21v-6.053a.21.21 0 01.208-.21h5.776a.21.21 0 01.208.21v6.053h-.02zm-.187-8.694h-5.776c-1.392 0-2.514 1.173-2.514 2.64v6.053c0 1.446 1.122 2.64 2.514 2.64h5.776c1.392 0 2.514-1.173 2.514-2.64v-6.053c0-1.446-1.142-2.64-2.514-2.64zm12.238 8.903h-5.776a.209.209 0 01-.208-.21v-6.053a.21.21 0 01.208-.21h5.776a.21.21 0 01.208.21v6.053a.21.21 0 01-.207.21zm0-8.903h-5.776c-1.392 0-2.514 1.173-2.514 2.64v6.053c0 1.446 1.122 2.64 2.514 2.64h5.776c1.393 0 2.515-1.173 2.515-2.64v-6.053c0-1.446-1.122-2.64-2.515-2.64zm12.447 8.694c0 .125-.083.209-.208.209h-5.776a.209.209 0 01-.208-.21v-6.053a.21.21 0 01.208-.21h5.776a.21.21 0 01.208.21v6.053zm-.187-8.694h-5.776c-1.392 0-2.514 1.173-2.514 2.64v6.053c0 1.446 1.122 2.64 2.514 2.64h5.776c1.393 0 2.515-1.173 2.515-2.64v-6.053c0-1.446-1.143-2.64-2.515-2.64zm12.446 8.694c0 .125-.083.209-.207.209H48.85a.209.209 0 01-.208-.21v-6.053a.21.21 0 01.208-.21h5.777a.21.21 0 01.207.21v6.053zm-.207-8.694H48.85c-1.392 0-2.514 1.173-2.514 2.64v6.053c0 1.446 1.122 2.64 2.514 2.64h5.777c1.392 0 2.514-1.173 2.514-2.64v-6.053c0-1.446-1.122-2.64-2.514-2.64zm12.446 8.694c0 .125-.083.209-.207.209h-5.777a.209.209 0 01-.208-.21v-6.053a.21.21 0 01.208-.21h5.777a.21.21 0 01.207.21v6.053zm-.187-8.694H61.11c-1.392 0-2.514 1.173-2.514 2.64v6.053c0 1.446 1.122 2.64 2.514 2.64h5.776c1.392 0 2.514-1.173 2.514-2.64v-6.053c0-1.446-1.142-2.64-2.514-2.64zm-36.55 21.849c0 .125-.083.209-.207.209h-5.777a.21.21 0 01-.208-.21v-6.053a.21.21 0 01.208-.21h5.776c.104 0 .208.105.208.21v6.053zm-.207-8.694h-5.777c-1.392 0-2.514 1.173-2.514 2.64v6.053c0 1.446 1.122 2.64 2.514 2.64h5.776c1.393 0 2.515-1.173 2.515-2.64v-6.053c0-1.446-1.122-2.64-2.515-2.64zm12.446 8.694c0 .125-.083.209-.187.209h-5.776a.21.21 0 01-.208-.21v-6.053a.21.21 0 01.208-.21h5.776c.104 0 .187.084.187.21v6.053zm-.187-8.694h-5.776c-1.392 0-2.514 1.173-2.514 2.64v6.053c0 1.446 1.122 2.64 2.514 2.64h5.776c1.393 0 2.515-1.173 2.515-2.64v-6.053c0-1.446-1.143-2.64-2.515-2.64zm12.446 8.694c0 .125-.083.209-.207.209H48.85a.209.209 0 01-.208-.21v-6.053a.21.21 0 01.208-.21h5.777a.21.21 0 01.207.21v6.053zm-.207-8.694H48.85c-1.392 0-2.514 1.173-2.514 2.64v6.053c0 1.446 1.122 2.64 2.514 2.64h5.777c1.392 0 2.514-1.173 2.514-2.64v-6.053c0-1.446-1.122-2.64-2.514-2.64zm12.446 8.694c0 .125-.083.209-.207.209h-5.777a.21.21 0 01-.208-.21v-6.053a.21.21 0 01.208-.21h5.777a.21.21 0 01.207.21v6.053zm-.187-8.694H61.11c-1.392 0-2.514 1.173-2.514 2.64v6.053c0 1.446 1.122 2.64 2.514 2.64h5.776c1.392 0 2.514-1.173 2.514-2.64v-6.053c0-1.446-1.142-2.64-2.514-2.64z" fill="#9F83BB"/><path d="M4.114 66.57c-.997 0-1.808-.838-1.808-1.885v-5.111l6.67 6.996H4.114zm7.792-15.312c0-.126.083-.21.187-.21h5.776c.104 0 .208.105.208.21v6.053c0 .126-.083.21-.208.21h-3.116c-.104-1.802-1.268-3.31-2.868-3.813v-2.45h.021zm62.96-44.366h-2.827c-.644 0-1.163.544-1.163 1.215 0 .67.52 1.214 1.163 1.214h2.826c.997 0 1.808.86 1.808 1.886v53.478c0 1.047-.81 1.885-1.808 1.885H13.631a3.133 3.133 0 01-2.307-1.005l-8.041-8.421a3.49 3.49 0 01-.748-1.215h8.187c.956 0 1.745.838 1.745 1.843v4.776c0 .67.52 1.215 1.164 1.215.644 0 1.163-.544 1.163-1.215v-2.597h3.096c1.392 0 2.514-1.173 2.514-2.64v-6.053c0-1.446-1.122-2.64-2.514-2.64h-5.776c-1.392 0-2.514 1.173-2.514 2.64v2.241H2.327v-5.74c0-.67-.52-1.214-1.163-1.214C.519 46.565 0 47.11 0 47.78v16.904C0 67.073 1.85 69 4.114 69h70.751c2.265 0 4.114-1.927 4.114-4.315V11.207c.021-2.388-1.828-4.315-4.114-4.315z" fill="#9F83BB"/><path d="M65.826 12.359c0 1.11-.872 2.032-1.932 2.032s-1.932-.901-1.932-2.032V4.44c0-1.11.872-2.032 1.932-2.032s1.932.9 1.932 2.032v7.918zm-12.238 0c0 1.11-.873 2.032-1.933 2.032s-1.932-.901-1.932-2.032V4.44c0-1.11.873-2.032 1.932-2.032 1.06 0 1.933.9 1.933 2.032v7.918zm-12.26 0c0 1.11-.872 2.032-1.932 2.032s-1.932-.901-1.932-2.032V4.44c0-1.11.872-2.032 1.932-2.032s1.932.9 1.932 2.032v7.918zm-12.238 0c0 1.11-.873 2.032-1.932 2.032-1.06 0-1.933-.901-1.933-2.032V4.44c0-1.11.873-2.032 1.933-2.032s1.932.9 1.932 2.032v7.918zm-12.26 0c0 1.11-.872 2.032-1.932 2.032s-1.932-.901-1.932-2.032V4.44c0-1.11.873-2.032 1.932-2.032 1.06 0 1.933.9 1.933 2.032v7.918zM63.895 0c-2.348 0-4.239 1.99-4.239 4.44v2.43h-3.76V4.44c0-2.45-1.912-4.44-4.24-4.44-2.348 0-4.238 1.99-4.238 4.44v2.43h-3.782V4.44c0-2.45-1.89-4.44-4.239-4.44-2.348 0-4.239 1.99-4.239 4.44v2.43h-3.76V4.44c0-2.45-1.912-4.44-4.24-4.44-2.347 0-4.238 1.99-4.238 4.44v2.43h-3.761V4.44c0-2.45-1.912-4.44-4.26-4.44-2.327 0-4.239 1.99-4.239 4.44v2.43H4.114C1.85 6.893 0 8.82 0 11.208V42.23c0 .67.52 1.214 1.164 1.214.644 0 1.163-.544 1.163-1.215V11.208c0-1.048.81-1.886 1.808-1.886h6.545v3.038c0 2.45 1.912 4.44 4.239 4.44 2.348 0 4.239-1.99 4.239-4.44V9.32h3.76v3.038c0 2.45 1.912 4.44 4.24 4.44 2.348 0 4.238-1.99 4.238-4.44V9.32h3.761v3.038c0 2.45 1.912 4.44 4.24 4.44 2.347.022 4.238-1.99 4.238-4.44V9.32h3.76v3.038c0 2.45 1.912 4.44 4.24 4.44 2.348 0 4.239-1.99 4.239-4.44V9.32h3.76v3.038c0 2.45 1.912 4.44 4.24 4.44 2.347 0 4.238-1.99 4.238-4.44V4.44c.02-2.45-1.87-4.44-4.218-4.44z" fill="#9F83BB"/><path d="M30.564 24.571h-7.189v7.248h7.19V24.57zm12.53 0h-7.19v7.248h7.19V24.57zm12.509 0h-7.189v7.248h7.19V24.57z" fill="#9F83BB"/></svg>