<svg width="77" height="75" fill="none" xmlns="http://www.w3.org/2000/svg"><path d="M64.6 12.881C57.262 5.4 46 4.256 37.67 8.756a1.428 1.428 0 00-.579 1.969 1.525 1.525 0 002.036.562c7.62-4.125 17.22-2.643 23.326 3.581 6.294 6.507 7.004 16.2 2.13 23.4-6.706 9.92-21.198 11.42-29.9 2.963-5.865-5.7-7.546-14.888-3.325-22.369a1.434 1.434 0 00-.579-1.968 1.536 1.536 0 00-2.036.58c-.093.17-.261.47-.41.77C24 26.85 25.96 36.88 32.572 43.312c10.01 9.75 26.744 8.063 34.494-3.412 5.547-8.25 4.874-19.444-2.465-27.019z" fill="#9F83BB"/><path d="M64.6 12.881C57.262 5.4 46 4.256 37.67 8.756a1.428 1.428 0 00-.579 1.969 1.525 1.525 0 002.036.562c7.62-4.125 17.22-2.643 23.326 3.581 6.294 6.507 7.004 16.2 2.13 23.4-6.706 9.92-21.198 11.42-29.9 2.963-5.865-5.7-7.546-14.888-3.325-22.369a1.434 1.434 0 00-.579-1.968 1.536 1.536 0 00-2.036.58c-.093.17-.261.47-.41.77C24 26.85 25.96 36.88 32.572 43.312c10.01 9.75 26.744 8.063 34.494-3.412 5.547-8.25 4.874-19.444-2.465-27.019z" stroke="#fff" stroke-width=".3" stroke-miterlimit="10"/><path d="M66.3 45.375c-9.898 9.637-25.922 9.712-35.895 0-9.973-9.694-9.898-25.313 0-34.969C40.303.77 56.402.77 66.3 10.406a24.302 24.302 0 010 34.969zm-41.161 7.2l-2.11-2.063 4.257-4.143c.336.356.673.712 1.027 1.05.355.337.71.675 1.084.993l-4.258 4.163zm-1.065 5.137L10.908 70.537a4.555 4.555 0 01-6.331 0 4.271 4.271 0 010-6.168l13.166-12.825a1.53 1.53 0 012.11 0l4.221 4.106c.58.581.58 1.5 0 2.062zM68.41 8.362C57.354-2.4 39.35-2.4 28.295 8.362 18.34 18.056 17.276 33.244 25.38 44.1l-4.65 4.537a4.583 4.583 0 00-5.098.844L2.466 62.306a7.132 7.132 0 000 10.275c2.914 2.85 7.639 2.85 10.552 0l13.166-12.825a4.283 4.283 0 00.878-4.969l4.65-4.537c11.169 7.894 26.763 6.844 36.698-2.85 11.075-10.744 11.075-28.275 0-39.038z" fill="#9F83BB"/><path d="M66.3 45.375c-9.898 9.637-25.922 9.712-35.895 0-9.973-9.694-9.898-25.313 0-34.969C40.303.77 56.402.77 66.3 10.406a24.302 24.302 0 010 34.969zm-41.161 7.2l-2.11-2.063 4.257-4.143c.336.356.673.712 1.027 1.05.355.337.71.675 1.084.993l-4.258 4.163zm-1.065 5.137L10.908 70.537a4.555 4.555 0 01-6.331 0 4.271 4.271 0 010-6.168l13.166-12.825a1.53 1.53 0 012.11 0l4.221 4.106c.58.581.58 1.5 0 2.062zM68.41 8.362C57.354-2.4 39.35-2.4 28.295 8.362 18.34 18.056 17.276 33.244 25.38 44.1l-4.65 4.537a4.583 4.583 0 00-5.098.844L2.466 62.306a7.132 7.132 0 000 10.275c2.914 2.85 7.639 2.85 10.552 0l13.166-12.825a4.283 4.283 0 00.878-4.969l4.65-4.537c11.169 7.894 26.763 6.844 36.698-2.85 11.075-10.744 11.075-28.275 0-39.038z" stroke="#fff" stroke-width=".3" stroke-miterlimit="10"/><path d="M34.626 12.506l-.037-.037a1.474 1.474 0 00-2.036 0c-.56.544-.56 1.425 0 1.987l.037.038c.56.506 1.438.506 1.999-.038a1.39 1.39 0 00.037-1.95z" fill="#9F83BB"/><path d="M34.626 12.506l-.037-.037a1.474 1.474 0 00-2.036 0c-.56.544-.56 1.425 0 1.987l.037.038c.56.506 1.438.506 1.999-.038a1.39 1.39 0 00.037-1.95z" stroke="#fff" stroke-width=".3" stroke-miterlimit="10"/></svg>