<svg width="76" height="76" fill="none" xmlns="http://www.w3.org/2000/svg"><g clip-path="url(#clip0)" fill="#9681BC"><path d="M75.873 35.189a1.2 1.2 0 00.075-.37 1.27 1.27 0 00-.063-.394l-.098-.277a37.929 37.929 0 00-13.81-25.535c-.558-.455-1.142-.865-1.725-1.286-.03-.024-.045-.059-.076-.081-.032-.023-.057-.02-.084-.038A38.117 38.117 0 0037.955.071c-.327 0-.655 0-.9.026A37.16 37.16 0 0024.663 2.48a11.4 11.4 0 00-18.411 9.004 12.06 12.06 0 00.995 4.204 38.118 38.118 0 00-3.405 5.61c-.02.03-.03.063-.047.095-8.99 18.59-1.51 40.96 16.857 50.4 18.366 9.442 40.91 2.507 50.795-15.624a37.454 37.454 0 004.5-16.195c.04-.611.053-1.235.053-1.86 0-.982-.051-1.956-.127-2.926zm-3.685-6.508c-.161-.143-.31-.309-.478-.44a16.714 16.714 0 00-5.537-2.766 11.92 11.92 0 00-5.56-.058 10.963 10.963 0 01-4.738.024c-3.031-.662-5.427-1.184-6.698-3.213-1.82-2.918-.966-7.018.954-8.46a2.893 2.893 0 012.17-.463 8.107 8.107 0 003.931-.662 10.19 10.19 0 003.424-2.608c.24.185.493.352.728.543a35.459 35.459 0 0111.804 18.103zM17.665 2.608a8.891 8.891 0 018.877 8.877c0 3.793-5.698 12.477-8.877 16.88a79.69 79.69 0 01-7.823-13 10.57 10.57 0 01-1.054-3.88 8.887 8.887 0 018.877-8.877zM2.447 38.116a35.85 35.85 0 01.712-7.037c.135 1.763.365 3.331.57 4.692.786 5.2 1.529 10.101 5.361 14.584 1.603 1.888 4.286 5.046 8.436 5.513 4.149.466 9.345-1.92 10.846-2.664l.576-.29a5.577 5.577 0 012.65-.849 6.255 6.255 0 014.148 2.12c2.165 2.395 2.714 6.395 1.176 8.56a3.894 3.894 0 01-1.948 1.353 5.924 5.924 0 00-3.18 2.536 7.831 7.831 0 00-.549 6.341C14.544 69.74 2.474 55.128 2.448 38.115zm35.508 35.508a35.69 35.69 0 01-3.669-.189 4.48 4.48 0 01-.289-.416 5.396 5.396 0 01-.024-5.087 3.498 3.498 0 011.992-1.498 6.319 6.319 0 003.024-2.22c2.205-3.102 1.581-8.476-1.357-11.726a8.709 8.709 0 00-6.007-2.959h-.056a7.686 7.686 0 00-3.778 1.125l-.541.274c-2.771 1.366-6.714 2.717-9.443 2.41-3.149-.353-5.336-2.93-6.787-4.637-3.363-3.931-4.022-8.281-4.782-13.315a36.465 36.465 0 01-.097-13.043A35.572 35.572 0 018.44 18.36c.042.085.089.17.127.254.081.161.165.321.253.482l.381.72a49.077 49.077 0 00.673 1.211l.276.48a141.821 141.821 0 00.706 1.19c.15.253.3.49.452.735.086.139.17.28.253.416.188.3.374.593.56.888l.148.23a109.672 109.672 0 00.942 1.435c.14.21.279.419.414.619l.301.44.326.475.304.438c.094.136.188.269.278.396.09.129.191.274.286.404l.232.327.253.35.207.287.202.278.164.223.155.21.093.127c.113.154.199.269.223.3a1.267 1.267 0 002.029 0c1.064-1.41 10.401-13.929 10.401-19.79 0-.37-.023-.738-.058-1.104-.011-.112-.03-.225-.043-.338a9.268 9.268 0 00-.127-.76 11.524 11.524 0 00-.283-1.129c-.031-.102-.058-.205-.091-.305a11.17 11.17 0 00-.388-1.003 4.518 4.518 0 00-.09-.184 12.172 12.172 0 00-.4-.78c-.063-.114-.133-.224-.2-.336a14.5 14.5 0 00-.382-.59 13.956 13.956 0 00-.24-.337c-.044-.056-.08-.115-.128-.17a34.631 34.631 0 018.15-1.689c-1.977 3.732-2.623 7.184-1.885 10.272a13.222 13.222 0 003.044 5.548c1.193 1.478 2.051 2.543 1.998 4.282-.109 3.677-4.262 6.738-5.833 7.895a21.838 21.838 0 01-6.81 3.29c-2.303.752-4.29 1.4-5.05 3.668a7.23 7.23 0 003.07 7.82c1.552.838 3.38 1 5.054.446a15.6 15.6 0 015.596-.267c2.41.34 4.487.634 5.472 2.013.585.825.555 1.677.44 3.24a15.364 15.364 0 00.658 6.572c.579 1.735 1.452 4.355 3.551 4.657a2.6 2.6 0 00.412.033c1.486 0 2.395-1.312 3.35-2.691.423-.61.889-1.269 1.447-1.93 2.61 4.218 5.261 7.737 5.384 7.904a1.268 1.268 0 002.03 0 105.415 105.415 0 007.506-11.558 16.663 16.663 0 014.403 2.008 35.45 35.45 0 01-30.68 17.662zm23.67-34.51a8.855 8.855 0 012.961 6.61c0 .913-.37 2.721-2.128 6.155A94.522 94.522 0 0155.709 62.6c-1.193-1.662-3.246-4.614-5.083-7.715a46.902 46.902 0 01-2.74-5.28 10.57 10.57 0 01-1.054-3.88 8.887 8.887 0 019.694-8.84 8.798 8.798 0 015.1 2.23zm11.794.73a34.937 34.937 0 01-3.571 13.88 19.287 19.287 0 00-4.454-2.075 15.023 15.023 0 001.729-5.924 11.461 11.461 0 00-6.388-10.25l-.08-.035a12.328 12.328 0 00-.866-.38c-.202-.079-.41-.14-.618-.206-.127-.038-.24-.086-.364-.127a11.27 11.27 0 00-.994-.23h-.016c-.203-.038-.408-.059-.614-.085a11.333 11.333 0 00-12.887 11.313c.099 1.69.525 3.346 1.256 4.874a46.795 46.795 0 002.402 4.723 23.377 23.377 0 00-2.172 2.77 6.6 6.6 0 01-1.304 1.597c-.254-.039-.724-.58-1.523-2.953a13.01 13.01 0 01-.533-5.587 6.784 6.784 0 00-.906-4.894c-1.619-2.265-4.446-2.663-7.196-3.053a17.869 17.869 0 00-6.415.287c-1.622.31-2.375.426-3.236-.11a4.806 4.806 0 01-2.004-4.861c.339-1.014 1.354-1.381 3.424-2.061a24.345 24.345 0 007.534-3.66c1.848-1.356 6.722-4.953 6.869-9.86.08-2.686-1.262-4.342-2.56-5.943a10.969 10.969 0 01-2.547-4.534c-.674-2.826.16-6.139 2.425-9.852h.145A35.593 35.593 0 0157.58 8.54a7.618 7.618 0 01-2.393 1.79 5.679 5.679 0 01-2.81.44 5.319 5.319 0 00-3.77.969c-2.875 2.164-4.164 7.685-1.579 11.83 1.84 2.939 4.982 3.623 8.414 4.371 1.847.39 3.756.382 5.6-.024a9.566 9.566 0 014.5.014 14.13 14.13 0 014.604 2.305 10.384 10.384 0 013.15 4.496c.103 1.12.167 2.244.167 3.385 0 .567-.01 1.141-.049 1.729h.005z"/><path d="M17.664 15.289a5.072 5.072 0 100-10.145 5.072 5.072 0 000 10.145zm0-7.609a2.536 2.536 0 110 5.073 2.536 2.536 0 010-5.073zm32.973 36.777a5.072 5.072 0 1010.145 0 5.072 5.072 0 00-10.145 0zm7.609 0a2.536 2.536 0 11-5.073 0 2.536 2.536 0 015.073 0z"/></g><defs><clipPath id="clip0"><path fill="#fff" d="M0 0h76v76H0z"/></clipPath></defs></svg>