<svg width="79" height="79" fill="none" xmlns="http://www.w3.org/2000/svg"><path d="M74.012.043H36.88a4.995 4.995 0 00-4.989 4.989 4.998 4.998 0 003.988 4.887v27.137H14.994a1.163 1.163 0 100 2.327h41.274a2.445 2.445 0 012.443 2.443 2.445 2.445 0 01-2.443 2.44H4.77a2.445 2.445 0 01-2.443-2.44 2.445 2.445 0 012.443-2.443h5.572a1.164 1.164 0 000-2.327H4.77A4.775 4.775 0 000 41.826a4.774 4.774 0 004.769 4.767h.394v26.254a2.391 2.391 0 002.388 2.388h2.34v2.56c0 .641.522 1.163 1.164 1.163h38.928c.642 0 1.163-.522 1.163-1.164v-2.559h2.34a2.391 2.391 0 002.389-2.388V70.09H73.85c.642 0 1.163-.522 1.163-1.164V9.92A4.998 4.998 0 0079 5.032a4.994 4.994 0 00-4.988-4.99zM53.486 72.909H43.472a1.163 1.163 0 100 2.326h5.347v1.396H12.218v-1.396h26.601a1.164 1.164 0 000-2.326c-32.749 0-31.33.025-31.33-.062V46.593h45.997V72.91zm19.202-5.146H55.874v-21.17h.394a4.774 4.774 0 004.77-4.767c0-2.63-2.14-4.77-4.77-4.77H38.205V10.02h34.483v57.743zm2.326-60.267c-.732.302-1.237.16-2.326.198-38.997 0-36.108.091-36.81-.197a2.663 2.663 0 01-1.66-2.465A2.666 2.666 0 0136.88 2.37h37.132a2.665 2.665 0 012.662 2.663 2.664 2.664 0 01-1.66 2.465z" fill="#9681BC"/><path d="M30.068 48.55a2.901 2.901 0 00-2.898 2.899c0 1.597 1.3 2.897 2.898 2.897a2.9 2.9 0 002.897-2.897c0-1.598-1.3-2.898-2.897-2.898zm0 3.47a.572.572 0 11.001-1.144.572.572 0 01-.001 1.144zm3.398 14.06v-8.045c0-.801-.651-1.452-1.452-1.452h-3.737a1.67 1.67 0 00-1.667 1.667v1.4c0 .667.393 1.244.96 1.51v4.92a1.67 1.67 0 00-1.228 1.61v1.562c0 .92.748 1.667 1.667 1.667h5.019a1.67 1.67 0 001.667-1.667V67.69a1.67 1.67 0 00-1.229-1.61zm-1.097 2.513h-3.7v-.292a1.623 1.623 0 001.228-1.572V60.61c0-.659-.395-1.227-.961-1.48v-.222h2.204c.036 8.35-.085 8.145.101 8.56.188.463.615.804 1.128.869v.255zm36.261-54.1h-4.033a1.163 1.163 0 100 2.326h4.032a1.163 1.163 0 100-2.326zm-8.687 0h-17.68a1.163 1.163 0 100 2.326h17.68a1.163 1.163 0 100-2.326zm8.685 7.237H42.263a1.163 1.163 0 100 2.327h26.365a1.163 1.163 0 100-2.326zm0 7.238H42.263a1.163 1.163 0 100 2.326h26.365a1.163 1.163 0 100-2.326z" fill="#9681BC"/></svg>