<svg width="85" height="83" fill="none" xmlns="http://www.w3.org/2000/svg"><g clip-path="url(#clip0)" fill="#9681BC"><path d="M17.208 46.647h.083c.726 0 1.328-.582 1.328-1.29a1.29 1.29 0 00-.332-.852 1.277 1.277 0 00-.913-.437 1.341 1.341 0 00-1.453 1.186 1.305 1.305 0 001.204 1.414h.083v-.02z"/><path d="M8.365 64.699c-3.716 14.683 19.22 17.885 23.144 5.2 1.203-4.098-.914-7.779-2.948-11.231-4.857-8.194-5.023-9.234-4.317-16.138 1.058-9.442 5.085-17.366 12.578-22.087 5.024-1.934 2.533-3.93 1.204-3.514a17.07 17.07 0 00-2.532 1.29c-8.801 4.616-17.353 12.373-18.702 22.397 1.017 1.976 2.781.5 2.823-1.144 1.12-4.096 3.176-7.694 6.102-10.793-2.387 4.388-3.84 9.587-4.276 15.369-1.37 8.693 4.442 13.913 7.224 20.526C32.899 79.07 5.5 78.446 11.436 63.992c2.305-4.991 5.605-8.59 6.684-13.684-.083-1.02-1.453-1.519-2.242-.79-.83 1.31-.996 2.828-1.888 4.325-1.869 3.89-4.38 7.03-5.625 10.856z"/><path d="M22.252 69.233c-.726.54-1.619.852-2.532.81h-.125c-.726-.02-1.35.562-1.37 1.27-.02.706.56 1.31 1.287 1.33h.208c1.038 0 2.055-.208 2.989-.665a6.203 6.203 0 002.075-1.58 6.713 6.713 0 001.184-1.914 5.08 5.08 0 00.394-1.83c0-.229-.02-.479-.083-.707-.145-.583-.685-.978-1.287-.978-.727 0-1.329.583-1.329 1.29 0 .104.021.208.042.312v.062c-.02.312-.083.603-.208.894a3.52 3.52 0 01-1.245 1.706zm34.83-39.473h.083c.726 0 1.328-.582 1.328-1.289s-.602-1.29-1.328-1.29a1.32 1.32 0 00-1.329 1.228c-.041.686.52 1.31 1.246 1.351z"/><path d="M51.477 58.314c9.423 7.05 24.14-.915 19.262-12.166-1.951-4.471-5.625-8.818-6.787-13.767-.706-11.46 3.32-22.897 12.744-28.804C81.72 1.643 79.23-.353 77.9.063c-.892.353-1.764.769-2.553 1.268-8.8 4.617-17.353 12.374-18.702 22.398.872 1.83 2.72.687 2.781-.915 1.121-4.2 3.197-7.84 6.145-11.022-2.367 4.326-3.799 9.463-4.256 15.14-1.722 10.794 7.182 16.326 7.722 23.355-.706 12.748-23.144 9.275-17.81-2.995 2.284-4.825 5.148-8.298 6.684-13.102.581-1.352-1.1-2.475-2.138-1.518-1.058 2.121-1.826 4.638-3.342 6.967-4.213 6.738-7.451 13.206-.954 18.675z"/><path d="M62.126 52.367a3.852 3.852 0 01-2.533.81h-.124c-.727-.02-1.35.541-1.35 1.27-.02.706.561 1.31 1.288 1.33h.207a7.049 7.049 0 002.99-.665 6.2 6.2 0 002.075-1.58 6.711 6.711 0 001.183-1.914 5.08 5.08 0 00.394-1.83c0-.229-.041-.478-.083-.707-.145-.583-.685-.978-1.287-.978-.726 0-1.328.583-1.328 1.29 0 .104.02.208.041.312v.062c-.02.312-.082.603-.207.894a4.138 4.138 0 01-1.266 1.706z"/><path d="M83.671 51.93c-1.328.062-5.5-.187-6.746.229-3.383.852-5.542 4.388-4.69 7.798.788 2.392 1.847 3.723 1.971 5.595 1.287 8.63-6.248 14.724-14.654 14.849-9.258-.27-15.817-6.718-14.157-15.307.187-1.497.997-2.683 1.848-4.845.892-2.912-.395-6.01-3.135-7.529-1.224-.77-3.28-.873-3.59-.811h-8.262c-2.906.333-3.528 2.516-1.017 6.24 1.515 2.765 2.2 4.304 2.574 5.198 2.823 8.277-3.425 16.7-14.115 17.033-9.507-.27-16.149-7.071-14.031-15.972 1.037-4.804 8.302-11.563 1.93-12.54H1.328C.083 51.825-.54 53.572.643 54.28c.229.395 6.58.104 6.975.187-2.616 4.68-4.006 7.445-4.38 8.797C.29 74.204 8.344 82.522 19.428 82.98c10.898.042 19.553-8.422 17.395-18.717-.56-2.6-1.62-4.346-4.567-9.753 6.207.29 12.268-1.498 12.6 3.889-.021 1.684-1.723 4.013-1.848 5.178C40.227 74.516 48.447 82.564 59.282 83c9.112.125 17.249-6.176 17.706-14.703.353-3.515-.955-5.865-2.242-9.359-.125-4.637 3.363-4.533 8.012-4.409 2.865.375 2.76-2.474.913-2.6z"/><path d="M62.416 64.845c.727 0 1.329.582 1.329 1.29 0 .727-.602 1.288-1.329 1.288-.726 0-1.328-.582-1.328-1.289s.581-1.29 1.328-1.29zm0 5.199c.727 0 1.329.582 1.329 1.29 0 .727-.602 1.289-1.329 1.289-.726 0-1.328-.583-1.328-1.29 0-.707.581-1.29 1.328-1.29zm-5.314 2.6c.726 0 1.328.582 1.328 1.289s-.602 1.29-1.328 1.29c-.727 0-1.329-.583-1.329-1.29 0-.707.582-1.29 1.329-1.29zm0-3.89c.726 0 1.328.583 1.328 1.29 0 .728-.602 1.29-1.328 1.29-.727 0-1.329-.583-1.329-1.29 0-.707.582-1.29 1.329-1.29z"/></g><defs><clipPath id="clip0"><path fill="#fff" d="M0 0h85v83H0z"/></clipPath></defs></svg>